<svg id="Layer_1" data-name="Layer 1" xmlns="http://www.w3.org/2000/svg" viewBox="0 0 194.77 193.77"><defs><style>.cls-1{fill:#e45d26;}.cls-2{fill:#8ac441;}.cls-3{fill:#44c6e1;}.cls-4{fill:#6fc4b3;}.cls-5{fill:#fab22a;}</style></defs><title>YC_fab_highres</title><polygon class="cls-1" points="85.46 0 14.92 0 0.01 0 0.01 12.93 0.01 86.44 14.92 86.44 14.92 12.93 85.46 12.93 85.46 0"/><polygon class="cls-2" points="109.3 0.05 179.85 0.05 194.76 0.05 194.76 12.97 194.76 86.45 179.85 86.45 179.85 12.97 109.3 12.97 109.3 0.05"/><polygon class="cls-3" points="109.3 193.77 179.85 193.77 194.77 193.77 194.77 180.83 194.77 107.22 179.85 107.22 179.85 180.83 109.3 180.83 109.3 193.77"/><polygon class="cls-4" points="85.47 193.77 14.91 193.77 0 193.77 0 180.83 0 107.22 14.91 107.22 14.91 180.83 85.47 180.83 85.47 193.77"/><path class="cls-5" d="M279,371.33H265.2V349a28.19,28.19,0,0,1-8.43-3.42,27.07,27.07,0,0,1-6.6-5.62,25.13,25.13,0,0,1-4.28-7.24,23.3,23.3,0,0,1-1.52-8.37v-19.1h13.87v19.1a11.47,11.47,0,0,0,1.09,4.95,13,13,0,0,0,3,4.07,14.3,14.3,0,0,0,4.42,2.73,15,15,0,0,0,10.78,0,14.23,14.23,0,0,0,4.43-2.73,13.14,13.14,0,0,0,3-4.07,11.47,11.47,0,0,0,1.09-4.95v-19.1H299.8v19.1a23.3,23.3,0,0,1-1.52,8.37A25.13,25.13,0,0,1,294,340a27.29,27.29,0,0,1-6.57,5.62A28,28,0,0,1,279,349Z" transform="translate(-190.73 -249.71)"/><path class="cls-5" d="M338.23,394.13a33.16,33.16,0,0,1-10.08,5.75,34,34,0,0,1-28.35-2.42,33.16,33.16,0,0,1-6.77-5.07,32.51,32.51,0,0,1-5.24-6.54,31.82,31.82,0,0,1-3.37-7.71,30.33,30.33,0,0,1-1.19-8.54,30.66,30.66,0,0,1,1.19-8.58,31.72,31.72,0,0,1,3.37-7.72,32.85,32.85,0,0,1,5.24-6.55,33.91,33.91,0,0,1,6.77-5.07,34.41,34.41,0,0,1,8-3.26,33.54,33.54,0,0,1,8.84-1.15,34.24,34.24,0,0,1,11.55,2A32.37,32.37,0,0,1,338.23,345l-6.84,10.88a19.38,19.38,0,0,0-6.7-4.55,21.28,21.28,0,0,0-8.09-1.58,20.57,20.57,0,0,0-8,1.56,21.28,21.28,0,0,0-6.52,4.24,19.94,19.94,0,0,0-4.41,6.31A18.76,18.76,0,0,0,296,369.6a18.5,18.5,0,0,0,1.62,7.68,20.27,20.27,0,0,0,4.41,6.28,21,21,0,0,0,6.52,4.27,20.57,20.57,0,0,0,8,1.56,21.1,21.1,0,0,0,8.09-1.59,19.22,19.22,0,0,0,6.7-4.54Z" transform="translate(-190.73 -249.71)"/></svg>