<svg width="1638" height="457" viewBox="0 0 1638 457" fill="none" xmlns="http://www.w3.org/2000/svg">
<path fill-rule="evenodd" clip-rule="evenodd" d="M0 457L54.6 348.633C109.2 240.267 218.4 23.5331 327.6 1.85971C436.8 -19.8136 546 153.573 655.2 229.43C764.4 305.287 873.6 283.613 982.8 240.267C1092 196.92 1201.2 131.9 1310.4 131.9C1419.6 131.9 1528.8 196.92 1583.4 229.43L1638 261.94V457H1583.4C1528.8 457 1419.6 457 1310.4 457C1201.2 457 1092 457 982.8 457C873.6 457 764.4 457 655.2 457C546 457 436.8 457 327.6 457C218.4 457 109.2 457 54.6 457H0Z" fill="#EB5757" fill-opacity="0.23"/>
</svg>
